#!OML:ASF H:\Pregnant\Project 1\Capture day 1\Session 1\femalepreg.ASF
:FULLY-SPECIFIED
:DEGREES
600
root 0.517923 15.7848 -24.4367 29.0964 -44.0015 -3.64913
lowerback -13.8786 -0.427853 -0.471292
upperback -5.79411 -0.660878 0.846071
thorax 1.69789 -0.37161 1.04647
lowerneck -19.2425 9.5219 11.3782
upperneck 20.999 12.0253 -8.65355
head 11.2356 5.37787 -3.07141
rclavicle 4.96962e-015 -1.05356e-014
rhumerus -58.7997 15.012 -88.7378
rradius 43.0665
rwrist -23.5857
rhand -24.4954 -27.11
rfingers 7.12502
rthumb 1.99886 -57.0803
lclavicle 4.96962e-015 -1.05356e-014
lhumerus -40.8185 -27.1914 96.9173
lradius 63.4253
lwrist 28.9169
lhand -21.7605 -12.4567
lfingers 7.12502
lthumb 4.64007 17.4725
rfemur -64.162 19.5799 -5.19127
rtibia 36.8523
rfoot -13.8981 -14.8474
rtoes -27.9136
lfemur -22.4948 -20.7747 -20.5533
ltibia 30.4904
lfoot -14.8417 -14.1333
ltoes -2.19623
601
root 0.382546 15.7497 -24.3486 28.8302 -43.4358 -3.5395
lowerback -13.9476 -0.299833 -0.11686
upperback -5.7859 -0.546532 1.19743
thorax 1.74136 -0.315359 1.22962
lowerneck -19.123 9.42124 11.4066
upperneck 21.2852 12.0477 -9.1558
head 11.3629 5.33098 -3.26246
rclavicle 6.62947e-014 -1.46107e-014
rhumerus -57.9602 15.1657 -88.107
rradius 42.2397
rwrist -23.4302
rhand -24.7596 -27.2998
rfingers 7.12502
rthumb 1.74374 -57.2724
lclavicle 6.62947e-014 -1.46107e-014
lhumerus -41.2378 -26.8502 96.8713
lradius 63.7754
lwrist 30.6459
lhand -21.5197 -11.6974
lfingers 7.12502
lthumb 4.87258 18.2265
rfemur -63.543 19.0777 -4.24996
rtibia 37.2114
rfoot -13.12 -12.9569
rtoes -28.8357
lfemur -22.3643 -20.7968 -20.5928
ltibia 31.696
lfoot -14.472 -14.6786
ltoes -2.14637
602
root 0.249118 15.716 -24.26 28.5174 -42.8773 -3.45489
lowerback -13.9516 -0.151599 0.300768
upperback -5.76642 -0.413473 1.53474
thorax 1.76061 -0.250599 1.36588
lowerneck -18.9066 9.29722 11.5113
upperneck 21.5021 12.0503 -9.77003
head 11.458 5.27234 -3.51534
rclavicle 4.83544e-014 6.40584e-014
rhumerus -57.0529 15.2689 -87.4693
rradius 41.3573
rwrist -23.239
rhand -25.0668 -27.4619
rfingers 7.12502
rthumb 1.44705 -57.4368
lclavicle 4.83544e-014 6.40584e-014
lhumerus -41.639 -26.4481 96.7554
lradius 64.0145
lwrist 32.3145
lhand -21.3095 -10.9645
lfingers 7.12502
lthumb 5.07551 18.9548
rfemur -62.7861 18.4689 -3.12141
rtibia 37.7889
rfoot -12.3658 -10.901
rtoes -29.4027
lfemur -22.2865 -20.7357 -20.6578
ltibia 33.111
lfoot -13.9386 -15.2501
ltoes -2.18138
603
root 0.118377 15.6857 -24.171 28.1814 -42.3173 -3.40392
lowerback -13.8887 0.0227035 0.798819
upperback -5.74333 -0.254875 1.85318
thorax 1.74688 -0.174288 1.44109
lowerneck -18.6244 9.15167 11.6629
upperneck 21.6699 12.0319 -10.4566
head 11.5285 5.20318 -3.81044
rclavicle -1.21756e-015 -2.38542e-014
rhumerus -56.0991 15.3468 -86.86
rradius 40.444
rwrist -23.0621
rhand -25.432 -27.6714
rfingers 7.12502
rthumb 1.09437 -57.6484
lclavicle -1.21756e-015 -2.38542e-014
lhumerus -42.0279 -26.005 96.5849
lradius 64.1376
lwrist 33.8849
lhand -21.2098 -10.2951
lfingers 7.12502
lthumb 5.17175 19.6218
rfemur -61.9757 17.8209 -1.91823
rtibia 38.5539
rfoot -11.7274 -9.03592
rtoes -29.5914
lfemur -22.3209 -20.616 -20.7195
ltibia 34.7649
lfoot -13.1487 -15.8546
ltoes -2.1879
604
root -0.00879197 15.6589 -24.0822 27.8581 -41.7488 -3.40333
lowerback -13.7675 0.227282 1.40783
upperback -5.72078 -0.0674198 2.14244
thorax 1.70109 -0.0854805 1.42724
lowerneck -18.3467 9.00372 11.7945
upperneck 21.8355 12.0109 -11.1213
head 11.5958 5.13452 -4.09693
rclavicle 1.2921e-014 -4.77083e-015
rhumerus -55.0899 15.4056 -86.3169
rradius 39.4822
rwrist -22.8962
rhand -25.8747 -27.9317
rfingers 7.12502
rthumb 0.666787 -57.9104
lclavicle 1.2921e-014 -4.77083e-015
lhumerus -42.3905 -25.5245 96.3423
lradius 64.1316
lwrist 35.276
lhand -21.1008 -9.55115
lfingers 7.12502
lthumb 5.27701 20.3631
rfemur -61.1826 17.1713 -0.695646
rtibia 39.4492
rfoot -11.3747 -7.50466
rtoes -29.5918
lfemur -22.5331 -20.4218 -20.7523
ltibia 36.6951
lfoot -12.0701 -16.4836
ltoes -2.3122
605
root -0.131235 15.6357 -23.9936 27.569 -41.1663 -3.47087
lowerback -13.5835 0.462246 2.14834
upperback -5.70213 0.14855 2.40285
thorax 1.61871 0.0150341 1.3126
lowerneck -18.1057 8.86063 11.8778
upperneck 22.025 11.9904 -11.7107
head 11.6701 5.06985 -4.34878
rclavicle -5.77966e-014 1.39149e-014
rhumerus -54.0445 15.4896 -85.8726
rradius 38.5059
rwrist -22.7709
rhand -26.391 -28.3139
rfingers 7.12502
rthumb 0.168068 -58.2936
lclavicle -5.77966e-014 1.39149e-014
lhumerus -42.7247 -25.0074 96.0226
lradius 63.9966
lwrist 36.4678
lhand -21.1205 -8.90692
lfingers 7.12502
lthumb 5.258 21.0079
rfemur -60.4309 16.55 0.523631
rtibia 40.4029
rfoot -11.367 -6.37877
rtoes -29.4985
lfemur -22.9684 -20.1841 -20.7328
ltibia 38.9274
lfoot -10.6478 -17.094
ltoes -2.59713
606
root -0.248213 15.6158 -23.9044 27.3293 -40.5724 -3.63534
lowerback -13.3351 0.72402 3.05581
upperback -5.67977 0.386564 2.63148
thorax 1.50888 0.123138 1.07294
lowerneck -17.8855 8.72252 11.9517
upperneck 22.2016 11.9611 -12.2417
head 11.7372 5.00737 -4.57962
rclavicle -7.17613e-014 -8.74653e-015
rhumerus -52.982 15.6758 -85.5824
rradius 37.5475
rwrist -22.7236
rhand -26.9701 -28.7705
rfingers 7.12502
rthumb -0.391245 -58.7499
lclavicle -7.17613e-014 -8.74653e-015
lhumerus -43.0339 -24.4351 95.6058
lradius 63.7438
lwrist 37.4549
lhand -21.2731 -8.34668
lfingers 7.12502
lthumb 5.11069 21.5717
rfemur -59.7026 15.9797 1.75212
rtibia 41.3442
rfoot -11.6392 -5.61941
rtoes -29.4861
lfemur -23.6291 -19.9137 -20.6397
ltibia 41.4549
lfoot -8.81683 -17.6384
ltoes -2.91672
607
root -0.359302 15.5976 -23.8148 27.1063 -39.974 -3.89047
lowerback -12.9927 1.00049 4.11935
upperback -5.64299 0.637059 2.82859
thorax 1.36893 0.233874 0.713065
lowerneck -17.7167 8.60377 11.9984
upperneck 22.383 11.9353 -12.6701
head 11.8067 4.95443 -4.76637
rclavicle -1.04362e-014 3.97569e-014
rhumerus -51.8767 15.9676 -85.4276
rradius 36.5934
rwrist -22.6977
rhand -27.5567 -29.2739
rfingers 7.12502
rthumb -0.957813 -59.2515
lclavicle -1.04362e-014 3.97569e-014
lhumerus -43.3133 -23.7842 95.0749
lradius 63.3852
lwrist 38.2455
lhand -21.6064 -7.96248
lfingers 7.12502
lthumb 4.78883 21.9634
rfemur -58.9364 15.4697 2.99297
rtibia 42.2228
rfoot -12.1119 -5.05052
rtoes -29.3794
lfemur -24.4583 -19.607 -20.4933
ltibia 44.2216
lfoot -6.5818 -18.0308
ltoes -3.23806
608
root -0.465279 15.5804 -23.7245 26.8782 -39.3861 -4.22053
lowerback -12.5665 1.27422 5.30515
upperback -5.58068 0.884596 2.99318
thorax 1.21706 0.340003 0.249199
lowerneck -17.5732 8.50459 12.0759
upperneck 22.5347 11.904 -13.0289
head 11.8657 4.90969 -4.93223
rclavicle 1.63003e-014 5.96354e-014
rhumerus -50.5943 16.2036 -85.2721
rradius 35.4808
rwrist -22.4365
rhand -28.0456 -29.6548
rfingers 7.12502
rthumb -1.42993 -59.6298
lclavicle 1.63003e-014 5.96354e-014
lhumerus -43.5667 -23.0434 94.4169
lradius 62.9351
lwrist 38.8784
lhand -22.0826 -7.66041
lfingers 7.12502
lthumb 4.32905 22.2753
rfemur -58.0849 15.0368 4.22212
rtibia 43.0109
rfoot -12.6767 -4.64262
rtoes -29.2521
lfemur -25.3908 -19.2574 -20.3112
ltibia 47.1283
lfoot -3.98202 -18.1984
ltoes -3.50181
609
root -0.567423 15.5635 -23.6338 26.6355 -38.8216 -4.58733
lowerback -12.0911 1.50279 6.5232
upperback -5.47346 1.08229 3.15399
thorax 1.08923 0.420916 -0.243368
lowerneck -17.5188 8.46387 12.1945
upperneck 22.6672 11.9182 -13.3293
head 11.9405 4.89276 -5.07191
rclavicle -1.07046e-013 2.14687e-014
rhumerus -49.0677 16.4406 -85.0795
rradius 34.2005
rwrist -21.8769
rhand -28.3969 -29.8971
rfingers 7.12502
rthumb -1.76921 -59.8695
lclavicle -1.07046e-013 2.14687e-014
lhumerus -43.7571 -22.1183 93.6101
lradius 62.4108
lwrist 39.3684
lhand -22.722 -7.42179
lfingers 7.12502
lthumb 3.71161 22.5256
rfemur -57.1523 14.6801 5.40261
rtibia 43.7091
rfoot -13.3333 -4.35299
rtoes -28.9833
lfemur -26.3755 -18.848 -20.1177
ltibia 50.0521
lfoot -1.17926 -18.0929
ltoes -3.78393
610
root -0.667386 15.5474 -23.5428 26.3735 -38.2986 -4.93263
lowerback -11.6205 1.68829 7.69987
upperback -5.32519 1.23687 3.29358
thorax 1.00848 0.482464 -0.739096
lowerneck -17.5055 8.45455 12.3863
upperneck 22.7279 11.9401 -13.6153
head 12.0014 4.88736 -5.2143
rclavicle -4.77083e-015 -4.77083e-015
rhumerus -47.2915 16.588 -84.8128
rradius 32.7613
rwrist -20.9307
rhand -28.5945 -29.9741
rfingers 7.12502
rthumb -1.96005 -59.9448
lclavicle -4.77083e-015 -4.77083e-015
lhumerus -43.896 -21.0431 92.6678
lradius 61.8274
lwrist 39.7339
lhand -23.4563 -7.12934
lfingers 7.12502
lthumb 3.00247 22.8293
rfemur -56.1862 14.3766 6.49343
rtibia 44.3319
rfoot -14.0565 -4.21247
rtoes -28.7597
lfemur -27.3704 -18.3642 -19.9542
ltibia 52.8704
lfoot 1.53764 -17.7057
ltoes -4.57519
611
root -0.766846 15.5337 -23.4518 26.0751 -37.8035 -5.18201
lowerback -11.1976 1.83464 8.75409
upperback -5.16752 1.35694 3.40809
thorax 0.962844 0.530048 -1.19503
lowerneck -17.4807 8.4458 12.5973
upperneck 22.7286 11.9416 -13.8669
head 12.0323 4.88032 -5.34897
rclavicle -1.87852e-014 -1.35174e-014
rhumerus -45.3553 16.5959 -84.4438
rradius 31.2313
rwrist -19.6207
rhand -28.6477 -29.9671
rfingers 7.12502
rthumb -2.01144 -59.9373
lclavicle -1.87852e-014 -1.35174e-014
lhumerus -44.0608 -19.8408 91.6634
lradius 61.2167
lwrist 39.9551
lhand -24.3049 -6.81805
lfingers 7.12502
lthumb 2.18293 23.1505
rfemur -55.2246 14.089 7.44541
rtibia 44.8985
rfoot -14.7537 -4.29437
rtoes -28.6574
lfemur -28.3633 -17.8351 -19.8499
ltibia 55.4901
lfoot 3.92226 -17.1301
ltoes -5.85132
